<mxfile host="app.diagrams.net" agent="Mozilla/5.0 (Windows NT 10.0; Win64; x64) AppleWebKit/537.36 (KHTML, like Gecko) Chrome/129.0.0.0 Safari/537.36" version="24.7.17">
  <diagram name="Página-1" id="IdU29XCaL_fpuVtDde93">
    <mxGraphModel dx="1434" dy="780" grid="1" gridSize="10" guides="1" tooltips="1" connect="1" arrows="1" fold="1" page="1" pageScale="1" pageWidth="827" pageHeight="1169" math="0" shadow="0">
      <root>
        <mxCell id="0" />
        <mxCell id="1" parent="0" />
        <mxCell id="JmfE4mT9tXqel_Xwa-Nn-1" value="" style="rounded=0;whiteSpace=wrap;html=1;" vertex="1" parent="1">
          <mxGeometry x="194" y="160" width="525" height="470" as="geometry" />
        </mxCell>
        <mxCell id="JmfE4mT9tXqel_Xwa-Nn-2" value="Usuário" style="shape=umlActor;verticalLabelPosition=bottom;verticalAlign=top;html=1;outlineConnect=0;" vertex="1" parent="1">
          <mxGeometry x="109" y="420" width="30" height="60" as="geometry" />
        </mxCell>
        <mxCell id="JmfE4mT9tXqel_Xwa-Nn-3" value="Editar produto" style="ellipse;whiteSpace=wrap;html=1;" vertex="1" parent="1">
          <mxGeometry x="299" y="350" width="140" height="70" as="geometry" />
        </mxCell>
        <mxCell id="JmfE4mT9tXqel_Xwa-Nn-4" value="" style="endArrow=none;html=1;rounded=0;entryX=0;entryY=0.5;entryDx=0;entryDy=0;exitX=0.5;exitY=0.5;exitDx=0;exitDy=0;exitPerimeter=0;" edge="1" parent="1" source="JmfE4mT9tXqel_Xwa-Nn-2" target="JmfE4mT9tXqel_Xwa-Nn-3">
          <mxGeometry width="50" height="50" relative="1" as="geometry">
            <mxPoint x="129" y="450" as="sourcePoint" />
            <mxPoint x="179" y="400" as="targetPoint" />
          </mxGeometry>
        </mxCell>
        <mxCell id="JmfE4mT9tXqel_Xwa-Nn-5" value="Modificar Produto" style="text;html=1;align=center;verticalAlign=middle;whiteSpace=wrap;rounded=0;" vertex="1" parent="1">
          <mxGeometry x="386.5" y="170" width="140" height="30" as="geometry" />
        </mxCell>
        <mxCell id="JmfE4mT9tXqel_Xwa-Nn-6" value="Verifica se o produto já existe no BD" style="ellipse;whiteSpace=wrap;html=1;" vertex="1" parent="1">
          <mxGeometry x="569" y="350" width="140" height="70" as="geometry" />
        </mxCell>
        <mxCell id="JmfE4mT9tXqel_Xwa-Nn-7" value="&amp;lt;&amp;lt;Includes&amp;gt;&amp;gt;" style="endArrow=block;dashed=1;html=1;rounded=0;entryX=0;entryY=0.5;entryDx=0;entryDy=0;endFill=0;" edge="1" parent="1" target="JmfE4mT9tXqel_Xwa-Nn-6">
          <mxGeometry width="50" height="50" relative="1" as="geometry">
            <mxPoint x="439" y="383" as="sourcePoint" />
            <mxPoint x="484" y="337" as="targetPoint" />
          </mxGeometry>
        </mxCell>
        <mxCell id="JmfE4mT9tXqel_Xwa-Nn-8" value="Retorna uma mensagem de erro caso o produto não exista" style="ellipse;whiteSpace=wrap;html=1;" vertex="1" parent="1">
          <mxGeometry x="509" y="220" width="181" height="70" as="geometry" />
        </mxCell>
        <mxCell id="JmfE4mT9tXqel_Xwa-Nn-9" value="&amp;lt;&amp;lt;Excludes&amp;gt;&amp;gt;" style="endArrow=block;dashed=1;html=1;rounded=0;endFill=0;exitX=0;exitY=1;exitDx=0;exitDy=0;entryX=1;entryY=0;entryDx=0;entryDy=0;" edge="1" parent="1" source="JmfE4mT9tXqel_Xwa-Nn-8" target="JmfE4mT9tXqel_Xwa-Nn-3">
          <mxGeometry width="50" height="50" relative="1" as="geometry">
            <mxPoint x="298" y="360" as="sourcePoint" />
            <mxPoint x="590" y="310" as="targetPoint" />
          </mxGeometry>
        </mxCell>
        <mxCell id="JmfE4mT9tXqel_Xwa-Nn-11" value="Deletar produto" style="ellipse;whiteSpace=wrap;html=1;" vertex="1" parent="1">
          <mxGeometry x="299" y="490" width="140" height="70" as="geometry" />
        </mxCell>
        <mxCell id="JmfE4mT9tXqel_Xwa-Nn-15" value="" style="endArrow=none;html=1;rounded=0;entryX=0;entryY=0.5;entryDx=0;entryDy=0;exitX=0.5;exitY=0.5;exitDx=0;exitDy=0;exitPerimeter=0;" edge="1" parent="1" source="JmfE4mT9tXqel_Xwa-Nn-2" target="JmfE4mT9tXqel_Xwa-Nn-11">
          <mxGeometry width="50" height="50" relative="1" as="geometry">
            <mxPoint x="134" y="460" as="sourcePoint" />
            <mxPoint x="309" y="395" as="targetPoint" />
          </mxGeometry>
        </mxCell>
        <mxCell id="JmfE4mT9tXqel_Xwa-Nn-16" value="" style="endArrow=block;html=1;rounded=0;entryX=0.5;entryY=1;entryDx=0;entryDy=0;endFill=0;" edge="1" parent="1" target="JmfE4mT9tXqel_Xwa-Nn-3">
          <mxGeometry width="50" height="50" relative="1" as="geometry">
            <mxPoint x="369" y="490" as="sourcePoint" />
            <mxPoint x="414" y="440" as="targetPoint" />
          </mxGeometry>
        </mxCell>
      </root>
    </mxGraphModel>
  </diagram>
</mxfile>
